<?xml version="1.0" encoding="UTF-8" standalone="no"?>
<!-- Created with Inkscape (http://www.inkscape.org/) -->

<svg
   xmlns:dc="http://purl.org/dc/elements/1.1/"
   xmlns:cc="http://creativecommons.org/ns#"
   xmlns:rdf="http://www.w3.org/1999/02/22-rdf-syntax-ns#"
   xmlns:svg="http://www.w3.org/2000/svg"
   xmlns="http://www.w3.org/2000/svg"
   xmlns:sodipodi="http://sodipodi.sourceforge.net/DTD/sodipodi-0.dtd"
   xmlns:inkscape="http://www.inkscape.org/namespaces/inkscape"
   width="128"
   height="128"
   viewBox="0 0 128.00001 128"
   id="svg8262"
   version="1.1"
   inkscape:version="0.91 r13725"
   sodipodi:docname="favicon-touch.svg"
   inkscape:export-filename="/tmp/nextcloud-branding/logo-icon.png"
   inkscape:export-xdpi="22.5"
   inkscape:export-ydpi="22.5">
  <defs
     id="defs8264">
    <clipPath
       clipPathUnits="userSpaceOnUse"
       id="clipPath60">
      <path
         d="m 0,0 841.89,0 0,595.276 L 0,595.276 0,0 Z"
         id="path62"
         inkscape:connector-curvature="0" />
    </clipPath>
    <clipPath
       clipPathUnits="userSpaceOnUse"
       id="clipPath60-6">
      <path
         d="m 0,0 841.89,0 0,595.276 L 0,595.276 0,0 Z"
         id="path62-1"
         inkscape:connector-curvature="0" />
    </clipPath>
  </defs>
  <sodipodi:namedview
     id="base"
     pagecolor="#ffffff"
     bordercolor="#666666"
     borderopacity="1.0"
     inkscape:pageopacity="0.0"
     inkscape:pageshadow="2"
     inkscape:zoom="1.979899"
     inkscape:cx="-73.46775"
     inkscape:cy="83.021089"
     inkscape:document-units="px"
     inkscape:current-layer="layer1"
     showgrid="false"
     fit-margin-top="10"
     fit-margin-left="10"
     fit-margin-right="10"
     fit-margin-bottom="10"
     units="px"
     inkscape:window-width="1920"
     inkscape:window-height="992"
     inkscape:window-x="0"
     inkscape:window-y="27"
     inkscape:window-maximized="1" />
  <metadata
     id="metadata8267">
    <rdf:RDF>
      <cc:Work
         rdf:about="">
        <dc:format>image/svg+xml</dc:format>
        <dc:type
           rdf:resource="http://purl.org/dc/dcmitype/StillImage" />
        <dc:title></dc:title>
      </cc:Work>
    </rdf:RDF>
  </metadata>
  <g
     inkscape:label="Layer 1"
     inkscape:groupmode="layer"
     id="layer1"
     transform="translate(993.34036,242.71357)">
    <path
       d="m -993.34037,-114.71357 128.00002,0 0,-128.00002 -128.00002,0 0,128.00002 z"
       style="fill:#93172d;fill-opacity:1;fill-rule:nonzero;stroke:none"
       id="path52"
       inkscape:connector-curvature="0" />
    <g
       id="g76"
       transform="matrix(4.9999993,0,0,-5.0000006,306.86266,-380.87452)" />
    <g
       transform="matrix(1.3679025,0,0,-1.3679031,-912.08634,-196.49458)"
       id="g12878">
      <g
         id="g56"
         transform="translate(-766.82618,-478.1528)">
        <g
           clip-path="url(#clipPath60-6)"
           id="g58">
          <g
             transform="translate(757.5366,472.2922)"
             id="g64">
            <path
               inkscape:connector-curvature="0"
               id="path66"
               style="fill:#ffffff;fill-opacity:1;fill-rule:nonzero;stroke:none"
               d="m 0,0 c 4.422,0 4.985,-0.5 4.985,-4.425 0,-3.677 -0.374,-4.612 -4.985,-4.612 -4.547,0 -4.986,0.872 -4.986,4.612 C -4.986,-0.622 -4.547,0 0,0" />
          </g>
          <g
             transform="translate(725.1482,453.7719)"
             id="g68">
            <path
               inkscape:connector-curvature="0"
               id="path70"
               style="fill:#ffffff;fill-opacity:1;fill-rule:nonzero;stroke:none"
               d="m 0,0 c -0.062,-0.872 0.931,-1.246 2.366,-1.246 1.62,0 2.932,0.122 4.553,0.122 6.606,0 13.465,-0.747 13.465,-8.537 0,-7.484 -5.425,-10.41 -12.842,-10.41 -7.296,0 -10.847,0.498 -14.527,0.498 l 0,5.734 c 0,0 8.665,-0.377 14.09,-0.377 2.807,0 4.117,1.125 4.117,4.119 0,2.68 -1.747,2.926 -3.868,2.926 -1.37,0 -3.117,-0.124 -4.988,-0.124 -5.671,0 -10.91,2.31 -10.91,8.608 0,0.749 0.189,3.371 0.94,4.741 -2.063,1.871 -2.808,4.614 -2.808,8.105 0,7.169 2.431,10.534 12.593,10.599 l 18.453,0 0,-5.05 -3.491,-0.499 c 0.562,-1.372 0.809,-3.181 0.809,-5.05 0,-8.291 -3.679,-10.66 -11.033,-10.66 L 0.06,3.499 0,0 Z" />
          </g>
          <g
             transform="translate(730.5078,472.7311)"
             id="g72">
            <path
               inkscape:connector-curvature="0"
               id="path74"
               style="fill:#ffffff;fill-opacity:1;fill-rule:nonzero;stroke:none"
               d="m 0,0 -2.119,0 c -3.62,0 -4.611,-0.189 -4.611,-4.988 0,-4.114 0.929,-4.8 3.799,-4.921 l 2.869,0 c 3.055,0 3.742,0.872 3.742,4.921 C 3.68,-0.749 3.554,0 0,0" />
          </g>
        </g>
      </g>
      <path
         inkscape:connector-curvature="0"
         id="path78"
         style="fill:#ffffff;fill-opacity:1;fill-rule:nonzero;stroke:none"
         d="m 0,0 9.661,18.388 7.603,0 L 26.863,0 18.26,0 13.465,10.472 8.725,0 0,0 Z" />
    </g>
  </g>
</svg>
